<svg xmlns="http://www.w3.org/2000/svg" xmlns:xlink="http://www.w3.org/1999/xlink" version="1.1" id="Layer_3_copy_4" x="0px" y="0px" viewBox="0 0 676.8 67.3" style="enable-background:new 0 0 676.8 67.3;" xml:space="preserve">
<style type="text/css">
	.st0{fill:#666666;}
	.st1{fill:#999999;}
	.st2{fill:#CCCCCC;}
	.st3{fill:#CC3333;}
</style>
<g>
	<g>
		<path d="M84.8,22.4h11.7l8.7,35.7h-9.9l-1-6.2H87l-1,6.2h-9.9L84.8,22.4z M90.7,29.7L90.7,29.7l-2.6,15.1h5.2L90.7,29.7z"/>
		<path d="M106.5,22.4h9v35.7h-9V22.4z"/>
		<path d="M119.4,22.4h9v35.7h-9C119.4,58.1,119.4,22.4,119.4,22.4z"/>
		<path d="M132.3,22.4h9v6.7h-9V22.4z M132.3,31.1h9v27h-9V31.1z"/>
		<path d="M153.2,46.1v3.5c0,2.9,1.2,3.6,2.4,3.6c1.6,0,2.5-1,2.5-4.7h8.1c-0.1,6.5-3.1,10.2-10.6,10.2c-8.7,0-11.5-3.9-11.5-14.2    s3.4-14.2,11.5-14.2c7.2,0,10.8,3.2,10.8,13V46L153.2,46.1L153.2,46.1z M158.2,40c0-2.8-0.6-4.1-2.5-4.1c-1.8,0-2.4,1.3-2.4,4.1    v1.2h4.9V40z"/>
		<path d="M182.3,22.4h9v35.7h-8.7v-3.7h-0.1c-1.1,3-2.9,4.4-6.1,4.4c-6,0-8.1-4.8-8.1-14.8c0-10.2,3.3-13.6,8.3-13.6    c2.5,0,4.7,1,5.6,3.7h0.1V22.4z M179.8,52.1c2,0,2.5-1.7,2.5-7.5s-0.5-7.5-2.5-7.5c-2.1,0-2.5,1.7-2.5,7.5S177.7,52.1,179.8,52.1z    "/>
		<path d="M208.1,22.4H222c7.1,0,10.3,4.7,10.3,11c0,7.3-4.1,11.1-11.7,11.1h-3.2v13.6h-9.3V22.4z M217.4,37.8h1.8    c2.3,0,3.6-1.3,3.6-4.3c0-2.9-1.3-4.3-3.6-4.3h-1.8V37.8z"/>
		<path d="M248.1,58.1c-0.3-1-0.4-1.9-0.5-3h-0.1c-1,2.4-3.4,3.7-6.1,3.7c-5.4,0-7.5-3.3-7.5-7.9c0-5,1.7-7.3,7.5-8.7l3.5-0.8    c1.9-0.5,2.6-1.3,2.6-3c0-1.6-0.8-2.5-2.3-2.5c-1.7,0-2.5,0.8-2.5,3.6h-7.8c0-7.7,6.2-9.1,10.3-9.1c6.3,0,10.7,1.7,10.7,8.7v13.2    c0,2.5,0.1,4.4,0.8,5.8C256.7,58.1,248.1,58.1,248.1,58.1z M247.5,48.3v-3.2h-0.1c-0.5,0.7-1.8,0.7-3,1.3    c-1.4,0.6-1.8,1.7-1.8,3.5s0.8,2.9,2.2,2.9C246.7,52.8,247.5,51.3,247.5,48.3z"/>
		<path d="M273.4,41.7c0-2.2-0.2-3.5-0.6-4.3s-1.1-1.1-2-1.1c-2,0-2.6,1.8-2.6,8.4s0.6,8.4,2.6,8.4c1.6,0,2.6-1,2.6-4.4V47h8.1    c0,4.2-0.7,7.2-2.4,9.1c-1.7,1.9-4.5,2.8-8.3,2.8c-6.9,0-11.6-2.1-11.6-13.7c0-12.8,5.3-14.7,12.1-14.7c8,0,10.2,4.5,10.2,11.3    L273.4,41.7L273.4,41.7L273.4,41.7z"/>
		<path d="M283.7,22.4h9v18h0.1l5-9.3h9.6l-7.5,11.1l8.4,15.9h-9.6l-4.5-9.3l-1.5,2.3V58h-9V22.4z"/>
		<path d="M322.1,58.1c-0.3-1-0.4-1.9-0.5-3h-0.1c-1,2.4-3.4,3.7-6.1,3.7c-5.4,0-7.5-3.3-7.5-7.9c0-5,1.8-7.3,7.5-8.7l3.6-0.8    c1.9-0.5,2.6-1.3,2.6-3c0-1.6-0.8-2.5-2.3-2.5c-1.7,0-2.5,0.8-2.5,3.6H309c0-7.7,6.2-9.1,10.3-9.1c6.3,0,10.7,1.7,10.7,8.7v13.2    c0,2.5,0.1,4.4,0.8,5.8C330.8,58.1,322.1,58.1,322.1,58.1z M321.5,48.3v-3.2h-0.1c-0.5,0.7-1.7,0.7-3,1.3    c-1.4,0.6-1.8,1.7-1.8,3.5s0.8,2.9,2.2,2.9C320.7,52.8,321.5,51.3,321.5,48.3z"/>
		<path d="M347.8,31.1h8.4v26.6c0,7.4-4.9,9.6-11.3,9.6c-5.8,0-10.3-1.4-10.5-7.6h8.1c0,1.3,0.8,2.1,2.3,2.1c1.3,0,2.7-0.4,2.7-3.3    v-5.2h-0.1c-1.1,3.1-3.6,4-6.1,4c-3.6,0-7.9-2.1-7.9-13.3c0-10.4,3.1-13.6,8.3-13.6c2.5,0,4.9,1.2,5.9,4.4h0.1v-3.7    C347.7,31.1,347.8,31.1,347.8,31.1z M345,50.7c1.7,0,2.5-1.1,2.5-6.8c0-5.6-0.8-6.8-2.5-6.8s-2.6,1.1-2.6,6.8S343.3,50.7,345,50.7    z"/>
		<path d="M360.1,22.4h9v6.7h-9V22.4z M360.1,31.1h9v27h-9V31.1z"/>
		<path d="M372.8,31.1h8.7v3.3h0.1c1.1-2.7,3.4-4,6.5-4c3.9,0,7,1.6,7,7.3v20.4h-9V40.3c0-2.2-0.6-3.2-2.2-3.2s-2.2,1-2.2,3.2v17.8    h-9v-27C372.7,31.1,372.8,31.1,372.8,31.1z"/>
		<path d="M412.7,31.1h8.4v26.6c0,7.4-4.9,9.6-11.3,9.6c-5.8,0-10.3-1.4-10.5-7.6h8.1c0,1.3,0.9,2.1,2.3,2.1c1.3,0,2.7-0.4,2.7-3.3    v-5.2h-0.1c-1.2,3.1-3.6,4-6.1,4c-3.6,0-7.9-2.1-7.9-13.3c0-10.4,3.1-13.6,8.3-13.6c2.5,0,4.9,1.2,5.9,4.4h0.1v-3.7    C412.6,31.1,412.7,31.1,412.7,31.1z M409.9,50.7c1.6,0,2.5-1.1,2.5-6.8c0-5.6-0.8-6.8-2.5-6.8s-2.6,1.1-2.6,6.8    S408.2,50.7,409.9,50.7z"/>
		<path d="M452.5,33.3c0-4-0.8-5.2-2.5-5.2c-2.8,0-3.1,2.6-3.1,12.2s0.3,12.2,3.1,12.2c2.3,0,2.8-2,2.8-8.7h9v2.6    c0,10-5.8,12.4-11.8,12.4c-10.4,0-12.7-5.2-12.7-18.5c0-13.6,3.1-18.5,12.7-18.5c8.4,0,11.5,4.4,11.5,11.3v2.3h-9V33.3z"/>
		<path d="M475.4,58.8c-10.5,0-11.5-6.4-11.5-14.2c0-7.1,1.3-14.2,11.5-14.2c10.5,0,11.5,6.4,11.5,14.2    C486.9,51.7,485.5,58.8,475.4,58.8z M475.4,53c2,0,2.5-1.6,2.5-8.4s-0.5-8.4-2.5-8.4s-2.5,1.6-2.5,8.4S473.4,53,475.4,53z"/>
		<path d="M489.4,31.1h8.7v4.3h0.1c1-3.2,3.4-5,6-5h1.5v8.4c-0.8-0.2-1.5-0.2-2.3-0.2c-3.2,0-5,1.2-5,4.8v14.7h-9L489.4,31.1    L489.4,31.1z"/>
		<path d="M507.4,31.1h8.7v3.7h0.1c1.1-3,3.2-4.4,6.1-4.4c6,0,8.1,4.8,8.1,14.8c0,10.3-3.3,13.6-8.3,13.6c-2.5,0-4.7-1-5.6-3.7h-0.1    v11.8h-9L507.4,31.1L507.4,31.1z M518.9,52.1c2.1,0,2.5-1.7,2.5-7.5s-0.4-7.5-2.5-7.5c-2,0-2.5,1.7-2.5,7.5S516.8,52.1,518.9,52.1    z"/>
		<path d="M543.9,58.8c-10.5,0-11.5-6.4-11.5-14.2c0-7.1,1.4-14.2,11.5-14.2c10.5,0,11.5,6.4,11.5,14.2    C555.4,51.7,554.1,58.8,543.9,58.8z M543.9,53c2,0,2.5-1.6,2.5-8.4s-0.4-8.4-2.5-8.4c-2,0-2.5,1.6-2.5,8.4S541.9,53,543.9,53z"/>
		<path d="M558,31.1h8.7v4.3h0.1c1-3.2,3.4-5,6-5h1.4v8.4c-0.8-0.2-1.5-0.2-2.2-0.2c-3.2,0-5,1.2-5,4.8v14.7h-9V31.1z"/>
		<path d="M589,58.1c-0.3-1-0.4-1.9-0.5-3h-0.1c-1,2.4-3.4,3.7-6.1,3.7c-5.4,0-7.5-3.3-7.5-7.9c0-5,1.7-7.3,7.5-8.7l3.5-0.8    c2-0.5,2.6-1.3,2.6-3c0-1.6-0.8-2.5-2.3-2.5c-1.7,0-2.5,0.8-2.5,3.6h-7.8c0-7.7,6.2-9.1,10.3-9.1c6.3,0,10.7,1.7,10.7,8.7v13.2    c0,2.5,0.1,4.4,0.9,5.8C597.7,58.1,589,58.1,589,58.1z M588.4,48.3v-3.2h-0.1c-0.5,0.7-1.7,0.7-3,1.3c-1.4,0.6-1.8,1.7-1.8,3.5    s0.8,2.9,2.2,2.9C587.6,52.8,588.4,51.3,588.4,48.3z"/>
		<path d="M599.1,31.1h3v-7.9h9v7.9h3.5v6h-3.5V50c0,1.6,0.7,2.1,2.1,2.1h1.4v6c-1.6,0.2-3.4,0.3-4.9,0.3c-5.5,0-7.6-0.9-7.6-6.9    V37.1h-3V31.1z"/>
		<path d="M616.7,22.4h9v6.7h-9V22.4z M616.7,31.1h9v27h-9V31.1z"/>
		<path d="M640.2,58.8c-10.5,0-11.5-6.4-11.5-14.2c0-7.1,1.4-14.2,11.5-14.2c10.5,0,11.5,6.4,11.5,14.2    C651.7,51.7,650.3,58.8,640.2,58.8z M640.2,53c2,0,2.5-1.6,2.5-8.4s-0.5-8.4-2.5-8.4s-2.5,1.6-2.5,8.4S638.2,53,640.2,53z"/>
		<path d="M654.5,31.1h8.7v3.3h0.1c1.1-2.7,3.4-4,6.5-4c3.9,0,7,1.6,7,7.3v20.4h-9V40.3c0-2.2-0.6-3.2-2.2-3.2c-1.6,0-2.2,1-2.2,3.2    v17.8h-9v-27C654.4,31.1,654.5,31.1,654.5,31.1z"/>
	</g>
	<path class="st0" d="M30,8.8l-3.9-8C25.9,0.3,25.5,0,24.9,0c-0.5,0-1,0.3-1.2,0.7L12.8,19.6c-0.6,1-1.8,1.8-3.1,1.8H0v7.3h13.8   c1.3,0,2.5-0.7,3.1-1.8L27.6,8.6C27.8,8.2,28.2,8,28.8,8C29.3,8,29.8,8.3,30,8.8z"/>
	<path class="st1" d="M34.8,18.7l-3.9-8c-0.2-0.5-0.7-0.8-1.3-0.8c-0.5,0-1,0.3-1.2,0.7L17.5,29.5c-0.6,1-1.8,1.8-3.1,1.8H0v7.3   h18.6c1.3,0,2.5-0.7,3.1-1.8l10.6-18.3c0.2-0.4,0.7-0.7,1.2-0.7C34.1,17.9,34.6,18.2,34.8,18.7z"/>
	<path class="st2" d="M39.6,28.6l-3.9-8c-0.2-0.5-0.7-0.8-1.3-0.8c-0.5,0-1,0.3-1.2,0.7L22.3,39.4c-0.6,1-1.8,1.8-3.1,1.8H0v7.3   h23.4c1.3,0,2.5-0.7,3.1-1.8l10.6-18.3c0.2-0.4,0.7-0.7,1.2-0.7C38.9,27.8,39.4,28.1,39.6,28.6z"/>
	<path class="st0" d="M43.5,36.5L40,29.2c0.6,1,1.8,1.8,3.1,1.8h22.3v7.3H46.7C45.3,38.3,44.1,37.6,43.5,36.5z"/>
	<path class="st1" d="M48.3,46.5l-3.6-7.3c0.6,1,1.8,1.8,3.1,1.8h17.4v7.3H51.3C50.2,48.2,48.9,47.5,48.3,46.5z"/>
	<path class="st2" d="M53.1,56.3L49.5,49c0.6,1,1.8,1.8,3.1,1.8h12.6v7.3h-9.1C54.9,58.1,53.7,57.5,53.1,56.3z"/>
	<circle class="st3" cx="37.9" cy="47.7" r="6.6"/>
</g>
</svg>